<svg width="35" height="31" viewBox="0 0 35 31" fill="none" xmlns="http://www.w3.org/2000/svg">
<path id="Vector" d="M31.7188 15.5H26.25V11.0714C26.25 8.62879 28.2119 6.64286 30.625 6.64286H31.1719C32.0811 6.64286 32.8125 5.90246 32.8125 4.98214V1.66071C32.8125 0.740402 32.0811 0 31.1719 0H30.625C24.582 0 19.6875 4.95446 19.6875 11.0714V27.6786C19.6875 29.5123 21.1572 31 22.9688 31H31.7188C33.5303 31 35 29.5123 35 27.6786V18.8214C35 16.9877 33.5303 15.5 31.7188 15.5ZM12.0312 15.5H6.5625V11.0714C6.5625 8.62879 8.52441 6.64286 10.9375 6.64286H11.4844C12.3936 6.64286 13.125 5.90246 13.125 4.98214V1.66071C13.125 0.740402 12.3936 0 11.4844 0H10.9375C4.89453 0 0 4.95446 0 11.0714V27.6786C0 29.5123 1.46973 31 3.28125 31H12.0312C13.8428 31 15.3125 29.5123 15.3125 27.6786V18.8214C15.3125 16.9877 13.8428 15.5 12.0312 15.5Z" fill="#FA5A00" fill-opacity="0.9"/>
</svg>
