<svg width="24" height="23" viewBox="0 0 24 23" fill="none" xmlns="http://www.w3.org/2000/svg">
<path id="Vector" d="M8.16146 7.78932L8.42151 7.75141L8.53776 7.51571L11.3719 1.76937C11.698 1.10889 12.6398 1.11116 12.9667 1.76973C12.9668 1.76985 12.9668 1.76998 12.9669 1.77011L15.8006 7.51571L15.9169 7.75141L16.1769 7.78932L22.5181 8.7138L22.5184 8.71385C23.2449 8.81922 23.5375 9.71663 23.0096 10.2306L23.0095 10.2307L18.4218 14.7012L18.2334 14.8848L18.278 15.144L19.363 21.4587C19.4873 22.1851 18.7209 22.7344 18.0747 22.3945L18.0746 22.3945L12.4018 19.4127L12.1692 19.2904L11.9366 19.4127L6.26381 22.3945L6.26224 22.3953C5.61949 22.7361 4.85059 22.1882 4.9754 21.4587L6.06041 15.144L6.10495 14.8848L5.91658 14.7012L1.32891 10.2307L1.32877 10.2306C0.800921 9.71663 1.09345 8.81922 1.81995 8.71385L1.82032 8.7138L8.16146 7.78932Z" stroke="black"/>
</svg>
