<svg width="40" height="40" viewBox="0 0 40 40" fill="none" xmlns="http://www.w3.org/2000/svg">
<g id="envira">
<path id="Vector" d="M37.5 2.5C37.5 39.8125 12.7109 31.1406 8.88281 31.1797L2.5 37.5V35.4688L8.0625 29.9688C7.73438 26.9219 5.36719 20.25 10.9531 13.2187C16.5391 6.17187 23.2266 6.5625 37.5 2.5ZM33.9062 8.72656C35.7422 4.84375 33.1875 8.32031 33.1875 8.32031C30.75 11.8516 27.4297 13.4766 23.8203 15.3672C19.1172 17.8281 12.9062 21.5391 10.7188 26.6328C8.53125 31.7109 9.74219 29.3047 11.3828 27.1016C13.0391 24.8984 18.1797 21.7734 21.5547 19.9922C26.2422 17.5156 30.8203 15.2266 33.9062 8.72656Z" fill="white"/>
</g>
</svg>
